<svg xmlns="http://www.w3.org/2000/svg" width="1024" height="1024" viewBox="8 3 46 46" fill="none"><metadata><rdf:RDF xmlns:rdf="http://www.w3.org/1999/02/22-rdf-syntax-ns#" xmlns:dc="http://purl.org/dc/elements/1.1/"><rdf:Description><dc:creator>RealFaviconGenerator</dc:creator><dc:source>https://realfavicongenerator.net</dc:source></rdf:Description></rdf:RDF></metadata><mask id="path-1-inside-1_5_202" fill="white">
<path d="M27 10C28.1046 10 29 10.8954 29 12V17.25H22C21.5858 17.25 21.25 17.5858 21.25 18C21.25 18.4142 21.5858 18.75 22 18.75H29V23C29 24.1046 28.1046 25 27 25H16C14.8954 25 14 24.1046 14 23V12C14 10.8954 14.8954 10 16 10H27Z"></path>
</mask><path d="M29 12H31V12V12L29 12ZM29 17.25V19.25H31V17.25H29ZM29 18.75H31V16.75H29V18.75ZM27 25V27V27V25ZM14 23H12V23H14ZM16 10V8H16L16 10ZM27 10V12V12H29L31 12C31 9.79086 29.2091 8 27 8V10ZM29 12H27V17.25H29H31V12H29ZM29 17.25V15.25H22V17.25V19.25H29V17.25ZM22 17.25V15.25C20.4812 15.25 19.25 16.4812 19.25 18H21.25H23.25C23.25 18.6904 22.6904 19.25 22 19.25V17.25ZM21.25 18H19.25C19.25 19.5188 20.4812 20.75 22 20.75V18.75V16.75C22.6904 16.75 23.25 17.3096 23.25 18H21.25ZM22 18.75V20.75H29V18.75V16.75H22V18.75ZM29 18.75H27V23H29H31V18.75H29ZM29 23H27V23V25V27C29.2091 27 31 25.2091 31 23H29ZM27 25V23H16V25V27H27V25ZM16 25V23V23H14H12C12 25.2091 13.7909 27 16 27V25ZM14 23H16V12H14H12V23H14ZM14 12H16V12V10L16 8C13.7909 8 12 9.79086 12 12H14ZM16 10V12H27V10V8H16V10Z" fill="#E2984B" mask="url(#path-1-inside-1_5_202)"></path><mask id="path-3-inside-2_5_202" fill="white">
<path d="M33 12C33 10.8954 33.8954 10 35 10H46C47.1046 10 48 10.8954 48 12V23C48 24.1046 47.1046 25 46 25H41.75V18C41.75 17.5858 41.4142 17.25 41 17.25C40.5858 17.25 40.25 17.5858 40.25 18V25H35C33.8954 25 33 24.1046 33 23V12Z"></path>
</mask><path d="M35 10V8H35L35 10ZM48 12H50V12H48ZM46 25V27V27V25ZM41.75 25H39.75V27H41.75V25ZM41.75 18H39.75H41.75ZM41 17.25V15.25H41L41 17.25ZM40.25 18H38.25V18H40.25ZM40.25 25V27H42.25V25H40.25ZM33 23H31V23L33 23ZM33 12H35V12V10L35 8C32.7909 8 31 9.79086 31 12H33ZM35 10V12H46V10V8H35V10ZM46 10V12V12L48 12H50C50 9.79086 48.2091 8 46 8V10ZM48 12L46 12V23H48H50V12H48ZM48 23H46V23V25V27C48.2091 27 50 25.2091 50 23H48ZM46 25V23H41.75V25V27H46V25ZM41.75 25H43.75V18H41.75H39.75V25H41.75ZM41.75 18H43.75C43.75 16.4812 42.5188 15.25 41 15.25V17.25V19.25C40.3096 19.25 39.75 18.6904 39.75 18H41.75ZM41 17.25L41 15.25C39.4812 15.25 38.25 16.4812 38.25 18H40.25H42.25C42.25 18.6904 41.6904 19.25 41 19.25L41 17.25ZM40.25 18H38.25V25H40.25H42.25V18H40.25ZM40.25 25V23H35V25V27H40.25V25ZM35 25V23V23H33L31 23C31 25.2091 32.7909 27 35 27V25ZM33 23H35V12H33H31V23H33Z" fill="#E2984B" mask="url(#path-3-inside-2_5_202)"></path><mask id="path-5-inside-3_5_202" fill="white">
<path d="M46 28C47.1046 28 48 28.8954 48 30V41C48 42.1046 47.1046 43 46 43H35C33.8954 43 33 42.1046 33 41V36.25H40C40.4142 36.25 40.75 35.9142 40.75 35.5C40.75 35.0858 40.4142 34.75 40 34.75H33V30C33 28.8954 33.8954 28 35 28H46Z"></path>
</mask><path d="M48 30H50V30L48 30ZM46 43V45V45V43ZM33 41H31V41H33ZM33 36.25V34.25H31V36.25H33ZM33 34.75H31V36.75H33V34.75ZM35 28V26H35L35 28ZM46 28V30V30H48L50 30C50 27.7909 48.2091 26 46 26V28ZM48 30H46V41H48H50V30H48ZM48 41H46V41V43V45C48.2091 45 50 43.2091 50 41H48ZM46 43V41H35V43V45H46V43ZM35 43V41V41H33H31C31 43.2091 32.7909 45 35 45V43ZM33 41H35V36.25H33H31V41H33ZM33 36.25V38.25H40V36.25V34.25H33V36.25ZM40 36.25V38.25C41.5188 38.25 42.75 37.0188 42.75 35.5H40.75H38.75C38.75 34.8096 39.3096 34.25 40 34.25V36.25ZM40.75 35.5H42.75C42.75 33.9812 41.5188 32.75 40 32.75V34.75V36.75C39.3096 36.75 38.75 36.1904 38.75 35.5H40.75ZM40 34.75V32.75H33V34.75V36.75H40V34.75ZM33 34.75H35V30H33H31V34.75H33ZM33 30H35V30V28L35 26C32.7909 26 31 27.7909 31 30H33ZM35 28V30H46V28V26H35V28Z" fill="#E2984B" mask="url(#path-5-inside-3_5_202)"></path><mask id="path-7-inside-4_5_202" fill="white">
<path d="M27 28C28.1046 28 29 28.8954 29 30V34.75H22.5C22.0858 34.75 21.75 35.0858 21.75 35.5C21.75 35.9142 22.0858 36.25 22.5 36.25H29V41C29 42.1046 28.1046 43 27 43H16C14.8954 43 14 42.1046 14 41V30C14 28.8954 14.8954 28 16 28H27Z"></path>
</mask><path d="M29 30H31V30L29 30ZM29 34.75V36.75H31V34.75H29ZM29 36.25H31V34.25H29V36.25ZM27 43V45V45V43ZM14 41H12V41H14ZM16 28V26H16L16 28ZM27 28V30V30H29L31 30C31 27.7909 29.2091 26 27 26V28ZM29 30H27V34.75H29H31V30H29ZM29 34.75V32.75H22.5V34.75V36.75H29V34.75ZM22.5 34.75V32.75C20.9812 32.75 19.75 33.9812 19.75 35.5H21.75H23.75C23.75 36.1904 23.1904 36.75 22.5 36.75V34.75ZM21.75 35.5H19.75C19.75 37.0188 20.9812 38.25 22.5 38.25V36.25V34.25C23.1904 34.25 23.75 34.8096 23.75 35.5H21.75ZM22.5 36.25V38.25H29V36.25V34.25H22.5V36.25ZM29 36.25H27V41H29H31V36.25H29ZM29 41H27V41V43V45C29.2091 45 31 43.2091 31 41H29ZM27 43V41H16V43V45H27V43ZM16 43V41V41H14H12C12 43.2091 13.7909 45 16 45V43ZM14 41H16V30H14H12V41H14ZM14 30H16V30V28L16 26C13.7909 26 12 27.7909 12 30H14ZM16 28V30H27V28V26H16V28Z" fill="#E2984B" mask="url(#path-7-inside-4_5_202)"></path></svg>